<svg width="131" height="54" viewBox="0 0 131 54" fill="none" xmlns="http://www.w3.org/2000/svg">
<path d="M14.3486 21.0998C14.2886 21.2298 14.0986 21.2898 13.8486 21.2898H5.26856C4.38286 21.3515 3.49652 21.1791 2.69856 20.7898C2.07608 20.5198 1.5224 20.1131 1.07856 19.5998C0.646858 19.1047 0.362755 18.4984 0.258561 17.8498C0.083024 17.1979 -0.0011133 16.5248 0.00856109 15.8498V5.63982C0.0219187 4.93859 0.12955 4.24235 0.328561 3.56982C0.510658 2.92702 0.827705 2.33042 1.25856 1.81982C1.73028 1.28429 2.32842 0.875216 2.99856 0.629819C3.76667 0.290233 4.5988 0.119715 5.43856 0.129819H13.8286C14.0786 0.129819 14.2686 0.189818 14.3286 0.319818C14.411 0.494799 14.4521 0.686415 14.4486 0.879819V2.81982C14.4521 3.01322 14.411 3.20484 14.3286 3.37982C14.2686 3.50982 14.0786 3.50982 13.8286 3.50982H5.82856C5.24124 3.46151 4.65777 3.64049 4.19856 4.00982C3.84561 4.42715 3.6666 4.96419 3.69856 5.50982V8.63982H12.6986C12.9486 8.63982 13.1386 8.70982 13.1986 8.82982C13.2944 9.02547 13.3391 9.24221 13.3286 9.45982V11.0898C13.3333 11.2845 13.2886 11.4772 13.1986 11.6498C13.1386 11.7798 12.9486 11.8398 12.6986 11.8398H3.69856V16.2198C3.6761 16.4815 3.70903 16.745 3.79517 16.9931C3.88132 17.2412 4.01876 17.4684 4.19856 17.6598C4.6358 18.0193 5.19383 18.1981 5.75856 18.1598H13.8986C14.2186 18.1598 14.3986 18.2198 14.4686 18.3498C14.5575 18.5475 14.5986 18.7633 14.5886 18.9798V20.8498C14.4086 20.7898 14.4086 20.9998 14.3486 21.0998Z" fill="white"/>
<path d="M25.9979 17.3499H26.1779L27.5579 12.5899L31.5079 0.5899C31.5213 0.512791 31.5504 0.439258 31.5934 0.373882C31.6364 0.308505 31.6924 0.252686 31.7579 0.2099C31.9177 0.151505 32.0888 0.130967 32.2579 0.1499H35.0779C35.1363 0.143811 35.1954 0.152528 35.2495 0.175247C35.3037 0.197966 35.3513 0.233956 35.3879 0.2799V0.5899L28.8079 19.7499C28.7013 20.1672 28.4628 20.539 28.1279 20.8099C27.8145 21.0279 27.4396 21.1401 27.0579 21.1299H25.4279C25.0156 21.16 24.6032 21.0734 24.2379 20.8799C23.8863 20.5925 23.6429 20.194 23.5479 19.7499L16.9179 0.6299C16.8874 0.583971 16.8711 0.530049 16.8711 0.4749C16.8711 0.41975 16.8874 0.365829 16.9179 0.3199C16.9539 0.273223 17.0014 0.236699 17.0557 0.213909C17.1101 0.191118 17.1694 0.182845 17.2279 0.1899H20.1079C20.2838 0.182233 20.458 0.227518 20.6079 0.3199C20.674 0.354334 20.7277 0.408415 20.7617 0.474684C20.7958 0.540953 20.8084 0.616148 20.7979 0.6899L24.6179 12.5899L25.9979 17.3499Z" fill="white"/>
<path d="M52.6689 21.0997C52.6089 21.2297 52.4189 21.2897 52.1089 21.2897H43.5889C42.7032 21.3514 41.8168 21.179 41.0189 20.7897C40.3964 20.5197 39.8427 20.113 39.3989 19.5997C38.9672 19.1046 38.6831 18.4983 38.5789 17.8497C38.4033 17.1979 38.3192 16.5248 38.3289 15.8497V5.63974C38.3438 4.93937 38.448 4.24375 38.6389 3.56974C38.8286 2.92802 39.1486 2.33229 39.5789 1.81974C40.0376 1.29216 40.6176 0.88381 41.2689 0.629738C42.0408 0.29112 42.876 0.120677 43.7189 0.129738H52.1089C52.3589 0.129738 52.5489 0.189738 52.6089 0.319738C52.6913 0.494718 52.7324 0.686334 52.7289 0.879738V2.81974C52.7324 3.01314 52.6913 3.20476 52.6089 3.37974C52.5489 3.50974 52.3589 3.50974 52.1089 3.50974H44.1089C43.5247 3.46197 42.9445 3.64103 42.4889 4.00974C42.1359 4.42707 41.9569 4.96411 41.9889 5.50974V8.63974H50.9889C51.2389 8.63974 51.4289 8.70974 51.4889 8.82974C51.5847 9.02539 51.6294 9.24213 51.6189 9.45974V11.0897C51.6236 11.2844 51.5789 11.4771 51.4889 11.6497C51.4289 11.7797 51.2389 11.8397 50.9889 11.8397H41.9889V16.2197C41.9664 16.4814 41.9993 16.7449 42.0855 16.993C42.1716 17.2411 42.3091 17.4683 42.4889 17.6597C42.9261 18.0192 43.4841 18.198 44.0489 18.1597H52.1889C52.5089 18.1597 52.6889 18.2197 52.7589 18.3497C52.8478 18.5474 52.8889 18.7632 52.8789 18.9797V20.8497C52.7289 20.7897 52.7289 20.9997 52.6689 21.0997Z" fill="white"/>
<path d="M59.7502 5.75986V20.6699C59.7692 20.8657 59.7236 21.0624 59.6202 21.2299C59.4479 21.32 59.2543 21.3615 59.0602 21.3499H56.8702C56.6736 21.3531 56.4788 21.3121 56.3002 21.2299C56.1802 21.1699 56.1102 20.9799 56.1102 20.7299V2.12986C56.0648 1.64207 56.2 1.15458 56.4902 0.759864C56.6712 0.58576 56.8897 0.455544 57.129 0.379257C57.3682 0.302971 57.6218 0.28265 57.8702 0.319864H58.9302C59.3316 0.286892 59.7318 0.396675 60.0602 0.629864C60.3898 0.910105 60.6645 1.2492 60.8702 1.62986L66.8702 11.6299L69.4402 15.9499H69.5702V0.999864C69.5581 0.821674 69.5999 0.643972 69.6902 0.489864C69.8656 0.408732 70.0569 0.367737 70.2502 0.369863H72.4502C72.6434 0.367737 72.8347 0.408732 73.0102 0.489864C73.1402 0.559864 73.1402 0.749864 73.1402 0.999864V19.5999C73.1733 20.0709 73.0387 20.5385 72.7602 20.9199C72.5834 21.1028 72.3672 21.2429 72.128 21.3296C71.8889 21.4163 71.6331 21.4471 71.3802 21.4199H70.3802C70.1479 21.4344 69.9148 21.4107 69.6902 21.3499C69.5059 21.3078 69.3344 21.222 69.1902 21.0999C69.0312 20.9697 68.884 20.8258 68.7502 20.6699C68.5929 20.4675 68.446 20.2572 68.3102 20.0399L62.4302 10.1499L59.9202 5.82986L59.7402 5.75986H59.7502Z" fill="white"/>
<path d="M89.7404 14.6598C89.7538 14.2342 89.683 13.8101 89.532 13.412C89.381 13.0138 89.1527 12.6494 88.8603 12.3398C88.4956 12.0175 88.0689 11.7732 87.6063 11.6219C87.1437 11.4705 86.655 11.4154 86.1703 11.4598H81.2203V17.9998H86.1103C86.7273 18.0049 87.3402 17.8999 87.9203 17.6898C88.3163 17.5011 88.6779 17.2476 88.9904 16.9398C89.2804 16.6385 89.4931 16.2713 89.6103 15.8698C89.6814 15.47 89.7248 15.0657 89.7404 14.6598V14.6598ZM81.1603 8.38982H86.0003C86.2973 8.38346 86.5925 8.3432 86.8804 8.26982C87.1959 8.21227 87.4937 8.08218 87.7503 7.88982C88.0474 7.71107 88.2869 7.45075 88.4403 7.13982C88.665 6.74071 88.7757 6.28756 88.7603 5.82982C88.773 5.51516 88.7179 5.20144 88.5989 4.90988C88.4799 4.61832 88.2996 4.35572 88.0704 4.13982C87.5315 3.68329 86.8346 3.457 86.1304 3.50982H81.1303V8.38982H81.1603ZM90.2404 9.76982C90.7697 10.0101 91.2724 10.305 91.7404 10.6498C92.1595 10.9899 92.5006 11.4162 92.7404 11.8998C93.0112 12.372 93.2228 12.8758 93.3703 13.3998C93.4928 13.9143 93.5565 14.441 93.5603 14.9698C93.5731 15.8592 93.3779 16.7392 92.9904 17.5398C92.6238 18.2969 92.1145 18.976 91.4904 19.5398C90.8301 20.0837 90.0918 20.5253 89.3003 20.8498C88.4197 21.1877 87.4835 21.3573 86.5403 21.3498H79.2203C78.5303 21.3498 78.1503 21.2298 77.9003 20.9198C77.6116 20.5439 77.479 20.0711 77.5303 19.5998V1.93982C77.4905 1.47271 77.622 1.00706 77.9003 0.629825C78.0735 0.462438 78.2819 0.336015 78.5104 0.259866C78.7388 0.183717 78.9814 0.159783 79.2203 0.189825H86.1703C87.0359 0.196949 87.8979 0.30093 88.7404 0.499825C89.4821 0.674775 90.1821 0.994195 90.8003 1.43982C91.3699 1.86404 91.8238 2.42452 92.1203 3.06982C92.4529 3.79786 92.6235 4.58942 92.6203 5.38982C92.6235 6.25174 92.3844 7.0972 91.9303 7.82982C91.499 8.51126 90.9218 9.08847 90.2404 9.51982V9.76982Z" fill="white"/>
<path d="M111.78 21.0997C111.71 21.2297 111.53 21.2897 111.28 21.2897H102.7C101.795 21.3456 100.891 21.1737 100.07 20.7897C99.4443 20.5198 98.8873 20.1132 98.4397 19.5997C98.0074 19.1062 97.7262 18.4987 97.6297 17.8497C97.4541 17.1979 97.37 16.5248 97.3797 15.8497V5.63975C97.3896 4.93896 97.4939 4.24271 97.6897 3.56975C97.8753 2.92634 98.1957 2.32979 98.6297 1.81975C99.0884 1.29217 99.6683 0.883818 100.32 0.629746C101.088 0.291052 101.92 0.120574 102.76 0.129746H111.09C111.34 0.129746 111.53 0.189746 111.59 0.319746C111.672 0.494727 111.713 0.686343 111.71 0.879746V2.81975C111.713 3.01315 111.672 3.20477 111.59 3.37975C111.53 3.50975 111.34 3.50975 111.09 3.50975H103.09C102.502 3.46247 101.919 3.64133 101.46 4.00975C101.111 4.42956 100.933 4.96479 100.96 5.50975V8.63975H109.96C110.054 8.62728 110.149 8.63809 110.238 8.67121C110.327 8.70434 110.407 8.75877 110.47 8.82975C110.557 9.02805 110.598 9.24339 110.59 9.45975V11.0897C110.592 11.283 110.551 11.4743 110.47 11.6497C110.4 11.7797 110.21 11.8397 109.96 11.8397H100.96V16.2197C100.94 16.4812 100.974 16.744 101.06 16.9918C101.146 17.2395 101.282 17.4669 101.46 17.6597C101.897 18.0192 102.455 18.198 103.02 18.1597H111.16C111.48 18.1597 111.66 18.2197 111.73 18.3497C111.819 18.5474 111.86 18.7632 111.85 18.9797V20.8497C111.9 20.7897 111.84 20.9997 111.78 21.0997Z" fill="white"/>
<path d="M130.937 3.31993C130.807 3.40756 130.653 3.45296 130.497 3.44993H124.797V20.5399C124.818 20.7346 124.775 20.9308 124.677 21.0999C124.504 21.1991 124.306 21.2443 124.107 21.2299H121.797C121.599 21.2343 121.403 21.1896 121.227 21.0999C121.107 21.0399 121.037 20.8499 121.037 20.5399V3.37993H115.467C115.311 3.39532 115.154 3.35261 115.027 3.25993C114.942 3.12928 114.9 2.9755 114.907 2.81993V0.759933C114.901 0.582289 114.942 0.406247 115.027 0.249933C115.154 0.157259 115.311 0.114545 115.467 0.129933H130.467C130.62 0.112069 130.775 0.155156 130.897 0.249933C130.998 0.399738 131.044 0.580006 131.027 0.759933V2.81993C130.997 3.12993 130.997 3.25993 130.937 3.31993Z" fill="white"/>
<path d="M13.8487 42.2098C14.1642 42.2716 14.4637 42.3976 14.7287 42.5798C14.9391 42.8471 15.0488 43.1798 15.0387 43.5198V51.3498C15.0387 51.5998 15.0387 51.7898 14.9087 51.9098C14.8832 51.9988 14.8361 52.0801 14.7715 52.1464C14.7069 52.2127 14.6269 52.262 14.5387 52.2898C14.004 52.582 13.4367 52.8103 12.8487 52.9698C12.3007 53.1573 11.7341 53.2847 11.1587 53.3498C10.6443 53.4729 10.1175 53.5367 9.58867 53.5398C9.19359 53.584 8.79619 53.6041 8.39867 53.5998C7.20893 53.6098 6.02591 53.4205 4.89867 53.0398C3.87449 52.6505 2.96846 52.0029 2.26867 51.1598C1.48374 50.2497 0.92521 49.1669 0.63867 47.9998C0.234889 46.487 0.0430586 44.9254 0.0686698 43.3598C0.0703656 41.8347 0.28236 40.317 0.698667 38.8498C1.05478 37.6193 1.64939 36.4708 2.44867 35.4698C3.19496 34.5594 4.13884 33.831 5.20867 33.3398C6.30882 32.8333 7.50761 32.5772 8.71867 32.5898C9.6014 32.587 10.4823 32.6707 11.3487 32.8398C12.3494 33.0415 13.3183 33.3779 14.2287 33.8398C14.3487 33.9598 14.4087 34.0898 14.3487 34.2098L13.9987 34.9998C13.8687 35.1298 13.7387 35.1898 13.6787 35.1298C12.8859 34.7178 12.0465 34.4022 11.1787 34.1898C10.4177 34.0162 9.63911 33.9323 8.85867 33.9398C7.72646 33.914 6.60578 34.1718 5.59867 34.6898C4.69965 35.1671 3.9281 35.8529 3.34867 36.6898C2.74698 37.5964 2.29143 38.5918 1.99867 39.6398C1.7075 40.8065 1.57962 42.008 1.61867 43.2098C1.60882 44.4501 1.73626 45.6876 1.99867 46.8998C2.24363 47.9069 2.66698 48.862 3.24867 49.7198C3.80789 50.5042 4.563 51.1283 5.43867 51.5298C6.43862 51.9848 7.53083 52.2005 8.62867 52.1598C8.98636 52.1681 9.34415 52.148 9.69867 52.0998L10.9487 51.9098C11.3887 51.7898 11.8887 51.7198 12.3287 51.5998C12.8058 51.4634 13.2656 51.2721 13.6987 51.0298V43.4598C12.7687 43.4598 8.25867 43.5198 7.12867 43.5198C7.0639 43.5152 7.00298 43.4873 6.95706 43.4414C6.91114 43.3955 6.88331 43.3346 6.87867 43.2698V42.3898C6.88331 42.325 6.91114 42.2641 6.95706 42.2182C7.00298 42.1723 7.0639 42.1444 7.12867 42.1398C8.14867 42.2698 13.4087 42.1398 13.8487 42.2098Z" fill="white"/>
<path d="M105.39 42.21C105.705 42.2718 106.005 42.3978 106.27 42.58C106.484 42.8451 106.594 43.1794 106.58 43.52V51.35C106.58 51.6 106.58 51.79 106.46 51.91C106.43 51.9985 106.381 52.079 106.315 52.1449C106.249 52.2109 106.168 52.2606 106.08 52.29C105.546 52.5839 104.979 52.8122 104.39 52.97C103.842 53.1582 103.275 53.2856 102.7 53.35C102.186 53.4737 101.659 53.5374 101.13 53.54C100.735 53.5843 100.337 53.6043 99.9399 53.6C98.7501 53.61 97.5671 53.4207 96.4399 53.04C95.417 52.6483 94.5115 52.0011 93.8099 51.16C93.0287 50.2474 92.4706 49.1656 92.1799 48C91.7805 46.4865 91.592 44.9251 91.6199 43.36C91.6184 41.8353 91.8271 40.3177 92.2399 38.85C92.5916 37.6067 93.1902 36.4469 93.9999 35.44C94.7423 34.5298 95.6829 33.8013 96.7499 33.31C97.85 32.8036 99.0488 32.5474 100.26 32.56C101.143 32.5572 102.023 32.641 102.89 32.81C103.891 33.0102 104.86 33.3466 105.77 33.81C105.89 33.93 105.95 34.06 105.89 34.18L105.52 34.99C105.39 35.12 105.27 35.18 105.2 35.12C104.407 34.708 103.568 34.3924 102.7 34.18C101.939 34.0064 101.16 33.9225 100.38 33.93C99.2509 33.9042 98.1334 34.1621 97.1299 34.68C96.2261 35.1544 95.4507 35.8406 94.8699 36.68C94.2831 37.586 93.8412 38.5779 93.5599 39.62C93.2687 40.7867 93.1408 41.9882 93.1799 43.19C93.17 44.4303 93.2975 45.6678 93.5599 46.88C93.8092 47.8856 94.2323 48.8399 94.8099 49.7C95.3665 50.4918 96.1218 51.1229 96.9999 51.53C97.9998 51.985 99.092 52.2007 100.19 52.16C100.548 52.1683 100.905 52.1483 101.26 52.1L102.51 51.91C102.976 51.8353 103.437 51.7318 103.89 51.6C104.37 51.4619 104.832 51.2707 105.27 51.03V43.46C104.33 43.46 99.8199 43.52 98.6899 43.52C98.6258 43.5134 98.566 43.485 98.5204 43.4395C98.4749 43.3939 98.4464 43.3341 98.4399 43.27V42.39C98.4464 42.3259 98.4749 42.2661 98.5204 42.2206C98.566 42.175 98.6258 42.1466 98.6899 42.14C99.6899 42.27 105 42.14 105.39 42.21Z" fill="white"/>
<path d="M28.3775 39.14L26.8074 34.38H26.6875L25.1174 39L22.4274 46.83H30.9974L28.3775 39.14ZM33.5074 53.35C33.3874 53.35 33.3174 53.35 33.2574 53.29C33.1799 53.2185 33.1156 53.1339 33.0675 53.04L31.3775 48.15H21.9974L20.2975 53C20.2791 53.0874 20.2314 53.1658 20.1623 53.2222C20.0931 53.2787 20.0067 53.3096 19.9174 53.31H18.8574C18.6074 53.31 18.5474 53.19 18.6074 53L25.6074 33.59C25.6723 33.3815 25.7776 33.1878 25.9174 33.02C26.086 32.9107 26.2891 32.868 26.4875 32.9H26.9875C27.2007 32.8908 27.4131 32.9319 27.6074 33.02C27.7648 33.1768 27.8756 33.3741 27.9274 33.59L34.7574 53C34.8274 53.06 34.8274 53.12 34.7574 53.19C34.6874 53.26 34.6374 53.31 34.5074 53.31L33.5074 53.35Z" fill="white"/>
<path d="M47.7201 51.0998C47.4981 51.1071 47.2799 51.0403 47.1001 50.9098C46.924 50.762 46.7924 50.5681 46.7201 50.3498C45.8501 48.2798 44.9701 46.2098 44.0301 44.2098C43.0901 42.2098 42.2101 40.0798 41.2701 38.0698L40.2701 35.6298H40.0801V53.2298C40.0831 53.2713 40.0771 53.3129 40.0626 53.3519C40.048 53.3908 40.0253 53.4262 39.9959 53.4556C39.9665 53.485 39.9311 53.5078 39.8922 53.5223C39.8532 53.5368 39.8116 53.5428 39.7701 53.5398H38.9001C38.8582 53.5426 38.8162 53.5366 38.7767 53.5222C38.7373 53.5078 38.7013 53.4852 38.6712 53.456C38.641 53.4267 38.6173 53.3915 38.6016 53.3526C38.5859 53.3136 38.5786 53.2718 38.5801 53.2298V33.9398C38.5655 33.6951 38.6323 33.4525 38.7701 33.2498C38.8458 33.14 38.9502 33.0531 39.0718 32.9985C39.1934 32.9438 39.3277 32.9235 39.4601 32.9398H39.9001C40.011 32.9258 40.1236 32.9355 40.2305 32.9683C40.3374 33.001 40.4361 33.0561 40.5201 33.1298C40.7269 33.3056 40.862 33.5511 40.9001 33.8198C40.9601 33.9998 41.1501 34.3798 41.3401 34.8798C41.5301 35.3798 41.8401 36.0098 42.1501 36.7598C42.4601 37.5098 42.7801 38.2598 43.0901 39.0698C43.4001 39.8798 43.7801 40.6998 44.0901 41.5198C44.4001 42.3398 44.7801 43.0798 45.0301 43.7698C45.2329 44.3529 45.4838 44.9182 45.7801 45.4598C46.1001 46.1498 46.4101 46.8998 46.7201 47.5898C47.0301 48.2798 47.2901 49.0298 47.6601 49.7198H47.7901L49.5401 45.5898L54.5401 33.8198C54.6615 33.5746 54.809 33.3433 54.9801 33.1298C55.0641 33.0561 55.1628 33.001 55.2697 32.9683C55.3766 32.9355 55.4892 32.9258 55.6001 32.9398H56.0401C56.1812 32.923 56.3242 32.9426 56.4556 32.9969C56.5869 33.0512 56.7021 33.1383 56.7901 33.2498C56.9279 33.4525 56.9947 33.6951 56.9801 33.9398V53.1598C56.9829 53.2017 56.9769 53.2437 56.9625 53.2832C56.948 53.3226 56.9255 53.3586 56.8962 53.3887C56.867 53.4189 56.8318 53.4426 56.7928 53.4583C56.7539 53.474 56.7121 53.4813 56.6701 53.4798H55.7901C55.7481 53.4813 55.7063 53.474 55.6673 53.4583C55.6284 53.4426 55.5932 53.4189 55.5639 53.3887C55.5347 53.3586 55.5122 53.3226 55.4977 53.2832C55.4833 53.2437 55.4773 53.2017 55.4801 53.1598V35.3798H55.5401L54.3501 38.2598L49.1001 50.3498C49.021 50.5622 48.8944 50.7537 48.7301 50.9098C48.5526 51.0522 48.3268 51.1203 48.1001 51.0998H47.7201Z" fill="white"/>
<path d="M64.8171 53.3502H63.8771C63.8357 53.3532 63.794 53.3472 63.7551 53.3327C63.7161 53.3181 63.6807 53.2954 63.6513 53.266C63.6219 53.2366 63.5992 53.2012 63.5847 53.1623C63.5702 53.1233 63.5642 53.0817 63.5671 53.0402V33.2502C63.5642 33.2087 63.5702 33.1671 63.5847 33.1281C63.5992 33.0892 63.6219 33.0538 63.6513 33.0244C63.6807 32.995 63.7161 32.9723 63.7551 32.9577C63.794 32.9432 63.8357 32.9372 63.8771 32.9402H64.8171C64.8586 32.9372 64.9002 32.9432 64.9392 32.9577C64.9782 32.9723 65.0135 32.995 65.0429 33.0244C65.0724 33.0538 65.0951 33.0892 65.1096 33.1281C65.1241 33.1671 65.1301 33.2087 65.1271 33.2502V53.1002C65.0671 53.2902 64.9971 53.3502 64.8171 53.3502Z" fill="white"/>
<path d="M72.9977 34.9998V53.0998C73.0006 53.1413 72.9947 53.1829 72.9801 53.2219C72.9656 53.2608 72.9429 53.2962 72.9135 53.3256C72.8841 53.355 72.8487 53.3777 72.8097 53.3923C72.7708 53.4068 72.7292 53.4128 72.6877 53.4098H71.8077C71.7662 53.4128 71.7246 53.4068 71.6856 53.3923C71.6467 53.3777 71.6113 53.355 71.5819 53.3256C71.5525 53.2962 71.5297 53.2608 71.5152 53.2219C71.5007 53.1829 71.4947 53.1413 71.4977 53.0998V33.9398C71.4851 33.6967 71.5479 33.4557 71.6777 33.2498C71.8077 33.0598 71.9977 32.9398 72.4377 32.9398H72.8077C72.9109 32.9264 73.0157 32.9366 73.1144 32.9695C73.2131 33.0024 73.3031 33.0572 73.3777 33.1298C73.5795 33.3177 73.7278 33.5558 73.8077 33.8198L82.1977 47.2798L84.7077 51.4098H84.8277V33.2498C84.8262 33.2078 84.8335 33.166 84.8492 33.127C84.8649 33.0881 84.8886 33.0529 84.9187 33.0236C84.9489 32.9944 84.9849 32.9719 85.0243 32.9574C85.0637 32.943 85.1058 32.937 85.1477 32.9398H85.9977C86.0396 32.937 86.0816 32.943 86.121 32.9574C86.1605 32.9719 86.1964 32.9944 86.2266 33.0236C86.2568 33.0529 86.2805 33.0881 86.2962 33.127C86.3118 33.166 86.3192 33.2078 86.3177 33.2498V52.4698C86.3294 52.7141 86.2628 52.9559 86.1277 53.1598C86.0444 53.2771 85.9302 53.3691 85.7978 53.4256C85.6654 53.4821 85.52 53.5008 85.3777 53.4798H84.9977C84.8961 53.4923 84.7929 53.4818 84.6959 53.4489C84.599 53.416 84.5107 53.3616 84.4377 53.2898C84.2337 53.1018 84.082 52.864 83.9977 52.5998L75.1677 38.3898L73.1677 35.0698L72.9977 34.9998Z" fill="white"/>
</svg>
