<svg width="94" height="60" viewBox="0 0 94 60" fill="none" xmlns="http://www.w3.org/2000/svg">
<path d="M50.0886 8L51.5286 0.06C49.9986 0 48.3986 0 46.7686 0C20.9986 0 0.0585938 5.76 0.0585938 12.9C0.113409 13.6847 0.345216 14.4469 0.736624 15.1293C1.12803 15.8116 1.66888 16.3965 2.31859 16.84C8.38859 11.65 25.9986 8 46.8386 8C47.9211 7.93999 49.0061 7.93999 50.0886 8V8Z" fill="#944794"/>
<path d="M91.2298 16.8401C91.8673 16.3849 92.3985 15.797 92.787 15.1168C93.1754 14.4366 93.4118 13.6804 93.4798 12.9001C93.4798 6.20006 74.9998 0.750059 51.5298 0.0600586L50.0898 8.00006C69.4398 8.33006 85.5298 12.0001 91.2298 16.8401Z" fill="#16A89D"/>
<path d="M45.4586 33.7498C32.7486 33.6198 21.3486 32.1198 13.1486 29.7998C5.06859 32.1198 0.0585938 35.1898 0.0585938 38.6998C0.114844 39.4842 0.347259 40.2458 0.738543 40.928C1.12983 41.6101 1.66991 42.1952 2.31859 42.6398C8.19859 37.5698 25.2286 33.8698 45.4586 33.7498Z" fill="#763D90"/>
<path d="M91.2294 42.6398C91.8659 42.1837 92.3964 41.5956 92.7847 40.9156C93.1731 40.2356 93.41 39.4798 93.4794 38.6998C93.4794 35.2498 88.5394 32.0598 80.4794 29.7998C71.9594 32.2498 60.0694 33.7498 46.8594 33.7498C67.5594 33.7498 85.1494 37.4398 91.2294 42.6398Z" fill="#2F90BD"/>
<path d="M46.77 25.8002C26 25.8002 8.33 22.0002 2.25 16.9102C1.61254 17.3653 1.08131 17.9532 0.692882 18.6334C0.304456 19.3136 0.0680692 20.0698 0 20.8502C0 24.2902 5 27.4902 13 29.7402C21 31.9902 32.66 33.5602 45.31 33.6902L46.75 25.8002H46.77Z" fill="#944794"/>
<path d="M91.2306 16.8398C85.1506 21.9998 67.6206 25.7298 46.8406 25.7298L45.3906 33.6198H46.7106C59.9206 33.6198 71.8806 32.1198 80.3306 29.6798C88.4106 27.3598 93.3306 24.2298 93.3306 20.7898C93.4806 19.4098 92.7306 18.0998 91.2306 16.8398Z" fill="#16A89D"/>
<path d="M2.31875 42.6401C1.68086 43.0957 1.14875 43.6835 0.758727 44.3635C0.368704 45.0434 0.129947 45.7995 0.0587452 46.5801C-0.00125484 53.1601 17.7787 58.5801 40.8187 59.4201L42.2587 51.5901C23.4187 51.0001 7.99874 47.4601 2.31875 42.6401Z" fill="#763D90"/>
<path d="M93.4817 46.5801C93.4259 45.7968 93.1947 45.036 92.8053 44.354C92.4158 43.672 91.878 43.0863 91.2317 42.6401C85.1517 47.8401 67.5617 51.5301 46.7117 51.5301C45.2117 51.5301 43.7117 51.5301 42.2017 51.4701L40.7617 59.3001C42.7017 59.3601 44.6417 59.4201 46.7617 59.4201C72.5717 59.4801 93.4817 53.7201 93.4817 46.5801Z" fill="#2F90BD"/>
</svg>
